<svg width="168" height="154" viewBox="0 0 168 154" fill="none" xmlns="http://www.w3.org/2000/svg">
<path d="M165 6.5C166.657 6.5 168 5.15685 168 3.5C168 1.84315 166.657 0.5 165 0.5V6.5ZM20.8787 152.621C22.0503 153.793 23.9497 153.793 25.1213 152.621L44.2132 133.529C45.3848 132.358 45.3848 130.458 44.2132 129.287C43.0416 128.115 41.1421 128.115 39.9706 129.287L23 146.257L6.02943 129.287C4.85785 128.115 2.95836 128.115 1.78679 129.287C0.615215 130.458 0.615215 132.358 1.78679 133.529L20.8787 152.621ZM165 3.5V0.5C136.496 0.5 113.139 1.2769 94.2003 4.59982C75.2294 7.92847 60.407 13.8574 49.1973 24.3747C37.9811 34.8981 30.7098 49.7063 26.2259 70.1462C21.749 90.5541 20 116.814 20 150.5H23H26C26 116.937 27.7509 91.1959 32.0866 71.4319C36.4152 51.6999 43.2688 38.1644 53.3027 28.7503C63.343 19.3301 76.8956 13.7278 95.2372 10.5095C113.611 7.28559 136.504 6.5 165 6.5V3.5Z" fill="url(#paint0_linear_31_32)"/>
<defs>
<linearGradient id="paint0_linear_31_32" x1="94" y1="3.5" x2="94" y2="150.5" gradientUnits="userSpaceOnUse">
<stop stop-color="white" stop-opacity="0"/>
<stop offset="0.485577" stop-color="white"/>
</linearGradient>
</defs>
</svg>
